<svg width="268" height="278" viewBox="0 0 268 278" fill="none" xmlns="http://www.w3.org/2000/svg">
<rect width="268" height="278" fill="#404040"/>
<path d="M179.54 138.785C178.529 135.552 177.699 132.303 176.95 129.035C177.198 119.954 176.18 108.969 174.357 103.007C170.839 92.2277 163.649 86.9325 153.704 81.1049L151.546 75.021C150.742 75.8985 150.074 76.8748 149.461 77.8911C143.108 72.0978 130.535 72.5702 122.976 73.7154C111.209 75.3989 100.646 80.9188 95.1228 91.4847C90.8011 99.8891 89.361 108.533 89.361 117.897C89.58 122.51 89.2279 127.709 91.3637 131.87C90.7896 134.184 90.1755 136.49 89.4583 138.786C86.0986 149.349 82.4969 159.676 82.0159 170.72C81.7769 180.083 84.1775 190.888 92.5819 196.411C98.5827 200.491 108.907 204.093 115.871 205.294C114.431 200.491 111.068 195.691 111.549 190.649C115.632 192.089 118.992 195.691 123.555 196.169C124.514 193.769 123.313 190.888 122.835 188.727C125.717 189.208 127.637 191.608 130.517 192.089C131.851 186.532 127.866 178.742 126.122 173.04C110.363 168.083 98.5427 149.091 97.3602 130.131C100.411 127.852 102.935 124.889 105.447 122.219C105.447 123.9 105.447 125.579 105.928 127.261C111.93 125.099 116.252 121.017 120.815 116.934C121.294 119.338 121.055 121.976 121.775 124.379C132.424 119.536 141.319 108.51 145.95 96.6281C146.457 105.559 148.949 114.765 151.067 121.124C154.044 130.384 159.755 140.441 167.651 147.298C162.726 159.292 153.772 169.191 142.949 172.811C141.239 178.532 137.129 186.455 138.482 192.088C141.363 191.607 143.284 189.206 146.166 188.725C145.685 190.887 144.485 193.767 145.446 196.168C150.007 195.69 153.368 192.087 157.452 190.648C157.93 195.69 154.57 200.49 153.129 205.292C160.09 204.091 170.416 200.49 176.419 196.41C184.824 190.887 187.224 180.082 186.984 170.718C186.503 159.674 182.901 149.348 179.54 138.785Z" fill="#949494"/>
<path d="M151.804 152.806C151.804 152.806 140.868 146.25 134.5 153.559C128.096 146.25 117.196 152.806 117.196 152.806C117.196 152.806 124.945 164.053 134.5 164.053C144.056 164.053 151.804 152.806 151.804 152.806Z" fill="#949494"/>
</svg>
