<svg width="96" height="96" viewBox="0 0 96 96" fill="none" xmlns="http://www.w3.org/2000/svg">
<g id="24x24/On Dark/Facebook">
<path id="Shape" fill-rule="evenodd" clip-rule="evenodd" d="M41.459 87.4673V60.6308H31.9999V49.9648H41.459V42.0993C41.459 32.9704 47.1834 27.9996 55.5478 27.9996C59.5546 27.9996 62.9959 28.2912 63.9999 28.4207V37.9618L58.1999 37.9648C53.6518 37.9648 52.7718 40.0703 52.7718 43.1564V49.9677H63.6189L62.2067 60.6337H52.7718V87.7178C72.6136 85.3591 87.9999 68.4761 87.9999 47.9995C87.9999 25.9081 70.0913 7.99951 47.9999 7.99951C25.9085 7.99951 7.99988 25.9081 7.99988 47.9995C7.99988 67.8634 22.4791 84.3455 41.459 87.4673Z" fill="white"/>
<mask id="mask0" mask-type="alpha" maskUnits="userSpaceOnUse" x="7" y="7" width="81" height="81">
<path id="Shape_2" fill-rule="evenodd" clip-rule="evenodd" d="M41.459 87.4673V60.6308H31.9999V49.9648H41.459V42.0993C41.459 32.9704 47.1834 27.9996 55.5478 27.9996C59.5546 27.9996 62.9959 28.2912 63.9999 28.4207V37.9618L58.1999 37.9648C53.6518 37.9648 52.7718 40.0703 52.7718 43.1564V49.9677H63.6189L62.2067 60.6337H52.7718V87.7178C72.6136 85.3591 87.9999 68.4761 87.9999 47.9995C87.9999 25.9081 70.0913 7.99951 47.9999 7.99951C25.9085 7.99951 7.99988 25.9081 7.99988 47.9995C7.99988 67.8634 22.4791 84.3455 41.459 87.4673Z" fill="white"/>
</mask>
<g mask="url(#mask0)">
</g>
</g>
</svg>
