<svg width="72" height="72" viewBox="0 0 72 72" fill="none" xmlns="http://www.w3.org/2000/svg">
<g id="24x24/On Dark/Favorite">
<path id="Shape" fill-rule="evenodd" clip-rule="evenodd" d="M34.4262 64.608L10.8161 41.5009C3.39465 34.2376 3.39465 22.4409 10.8161 15.1776C17.7061 8.43433 28.5682 7.97445 36 13.798C43.4318 7.97445 54.2939 8.43433 61.1839 15.1776C68.6054 22.4409 68.6054 34.2376 61.1839 41.5009L37.5738 64.608C36.6992 65.464 35.3008 65.464 34.4262 64.608ZM13.9636 18.3937C8.34547 23.8921 8.34547 32.7864 13.9636 38.2848L36 59.8517L58.0364 38.2848C63.6545 32.7864 63.6545 23.8921 58.0364 18.3937C52.3912 12.8688 43.2189 12.8688 37.5738 18.3937C36.6992 19.2496 35.3008 19.2496 34.4262 18.3937C28.7811 12.8688 19.6088 12.8688 13.9636 18.3937Z" fill="white"/>
</g>
</svg>
