<svg width="96" height="20" viewBox="0 0 96 20" fill="none" xmlns="http://www.w3.org/2000/svg">
<path d="M7.59213 2.2C9.08013 2.2 10.3681 2.448 11.4561 2.944C12.5601 3.44 13.4081 4.144 14.0001 5.056C14.5921 5.968 14.8881 7.048 14.8881 8.296C14.8881 9.528 14.5921 10.608 14.0001 11.536C13.4081 12.448 12.5601 13.152 11.4561 13.648C10.3681 14.128 9.08013 14.368 7.59213 14.368H4.20813V19H0.320125V2.2H7.59213ZM7.37613 11.2C8.54413 11.2 9.43213 10.952 10.0401 10.456C10.6481 9.944 10.9521 9.224 10.9521 8.296C10.9521 7.352 10.6481 6.632 10.0401 6.136C9.43213 5.624 8.54413 5.368 7.37613 5.368H4.20813V11.2H7.37613ZM23.5204 19.192C22.1604 19.192 20.9364 18.912 19.8484 18.352C18.7764 17.776 17.9364 16.984 17.3284 15.976C16.7204 14.968 16.4164 13.824 16.4164 12.544C16.4164 11.264 16.7204 10.12 17.3284 9.112C17.9364 8.104 18.7764 7.32 19.8484 6.76C20.9364 6.184 22.1604 5.896 23.5204 5.896C24.8804 5.896 26.0964 6.184 27.1684 6.76C28.2404 7.32 29.0804 8.104 29.6884 9.112C30.2964 10.12 30.6004 11.264 30.6004 12.544C30.6004 13.824 30.2964 14.968 29.6884 15.976C29.0804 16.984 28.2404 17.776 27.1684 18.352C26.0964 18.912 24.8804 19.192 23.5204 19.192ZM23.5204 16.12C24.4804 16.12 25.2644 15.8 25.8724 15.16C26.4964 14.504 26.8084 13.632 26.8084 12.544C26.8084 11.456 26.4964 10.592 25.8724 9.952C25.2644 9.296 24.4804 8.968 23.5204 8.968C22.5604 8.968 21.7684 9.296 21.1444 9.952C20.5204 10.592 20.2084 11.456 20.2084 12.544C20.2084 13.632 20.5204 14.504 21.1444 15.16C21.7684 15.8 22.5604 16.12 23.5204 16.12ZM33.103 6.088H36.847V19H33.103V6.088ZM34.975 4.288C34.287 4.288 33.727 4.088 33.295 3.688C32.863 3.288 32.647 2.792 32.647 2.2C32.647 1.608 32.863 1.112 33.295 0.711999C33.727 0.311999 34.287 0.111999 34.975 0.111999C35.663 0.111999 36.223 0.303999 36.655 0.688C37.087 1.072 37.303 1.552 37.303 2.128C37.303 2.752 37.087 3.272 36.655 3.688C36.223 4.088 35.663 4.288 34.975 4.288ZM48.1698 5.896C49.7698 5.896 51.0578 6.376 52.0338 7.336C53.0258 8.296 53.5218 9.72 53.5218 11.608V19H49.7778V12.184C49.7778 11.16 49.5538 10.4 49.1058 9.904C48.6578 9.392 48.0098 9.136 47.1618 9.136C46.2178 9.136 45.4658 9.432 44.9058 10.024C44.3458 10.6 44.0658 11.464 44.0658 12.616V19H40.3218V6.088H43.8978V7.6C44.3938 7.056 45.0098 6.64 45.7458 6.352C46.4818 6.048 47.2898 5.896 48.1698 5.896ZM64.6915 18.376C64.3235 18.648 63.8675 18.856 63.3235 19C62.7955 19.128 62.2435 19.192 61.6675 19.192C60.1155 19.192 58.9235 18.8 58.0915 18.016C57.2595 17.232 56.8435 16.08 56.8435 14.56V3.232H60.5875V6.376H63.7795V9.256H60.5875V14.512C60.5875 15.056 60.7235 15.48 60.9955 15.784C61.2675 16.072 61.6595 16.216 62.1715 16.216C62.7475 16.216 63.2595 16.056 63.7075 15.736L64.6915 18.376ZM85.219 10.336H88.771V19H85.843V17.992C84.675 18.856 83.171 19.288 81.331 19.288C79.779 19.288 78.355 18.952 77.059 18.28C75.763 17.608 74.731 16.632 73.963 15.352C73.195 14.056 72.811 12.52 72.811 10.744C72.811 9.032 73.203 7.512 73.987 6.184C74.787 4.84 75.891 3.792 77.299 3.04C78.707 2.288 80.291 1.912 82.051 1.912C83.523 1.912 84.859 2.16 86.059 2.656C87.259 3.152 88.267 3.872 89.083 4.816L86.587 7.12C85.387 5.856 83.939 5.224 82.243 5.224C81.171 5.224 80.219 5.456 79.387 5.92C78.555 6.368 77.907 7.008 77.443 7.84C76.979 8.672 76.747 9.632 76.747 10.72C76.747 11.856 76.971 12.824 77.419 13.624C77.883 14.424 78.499 15.032 79.267 15.448C80.035 15.848 80.875 16.048 81.787 16.048C83.147 16.048 84.291 15.664 85.219 14.896V10.336Z" fill="white"/>
<path d="M93.5346 19.192C92.8786 19.192 92.3266 18.968 91.8786 18.52C91.4306 18.072 91.2066 17.512 91.2066 16.84C91.2066 16.152 91.4306 15.6 91.8786 15.184C92.3266 14.752 92.8786 14.536 93.5346 14.536C94.1906 14.536 94.7426 14.752 95.1906 15.184C95.6386 15.6 95.8626 16.152 95.8626 16.84C95.8626 17.512 95.6386 18.072 95.1906 18.52C94.7426 18.968 94.1906 19.192 93.5346 19.192Z" fill="#F91A4F"/>
</svg>
