<svg width="18" height="17" viewBox="0 0 18 17" fill="none" xmlns="http://www.w3.org/2000/svg">
<path d="M12.2887 4.9507C12.1696 4.93662 12.0655 4.85915 12.006 4.76056L9.89337 0.70199C9.52 -0.0153078 8.49388 -0.0158273 8.11978 0.701091L6.00149 4.76056C5.9494 4.8662 5.84524 4.93662 5.71875 4.9507L1.09897 5.58503C0.261764 5.69999 -0.0642521 6.7372 0.556639 7.31047L3.85863 10.3592C3.94792 10.4366 3.98512 10.5563 3.9628 10.669L3.17203 15.0382C3.02548 15.8479 3.86507 16.4782 4.60171 16.1115L8.82887 14.007C8.88095 13.9789 8.94048 13.9648 9 13.9648C9.05952 13.9648 9.11905 13.9789 9.17113 14.007L13.3983 16.1115C14.1349 16.4782 14.9745 15.8479 14.828 15.0382L14.0372 10.669C14.0149 10.5563 14.0595 10.4366 14.1414 10.3592L17.4437 7.31019C18.0645 6.73698 17.7386 5.69985 16.9015 5.58478L12.2887 4.9507Z" fill="#F2C94C"/>
</svg>
