<svg width="72" height="72" viewBox="0 0 72 72" fill="none" xmlns="http://www.w3.org/2000/svg">
<g id="24x24/On Dark/User">
<path id="Shape" fill-rule="evenodd" clip-rule="evenodd" d="M36 65.25C52.1543 65.25 65.25 52.1543 65.25 36C65.25 19.8457 52.1543 6.75 36 6.75C19.8457 6.75 6.75 19.8457 6.75 36C6.75 52.1543 19.8457 65.25 36 65.25ZM16.3802 51.0893C13.1632 46.9126 11.25 41.6797 11.25 36C11.25 22.331 22.331 11.25 36 11.25C49.669 11.25 60.75 22.331 60.75 36C60.75 41.6808 58.8361 46.9146 55.6179 51.0917C54.1496 49.7601 52.273 48.797 49.8034 47.9081C49.4335 47.775 49.0543 47.6441 48.5811 47.4849L47.4284 47.099C44.6255 46.1534 43.6337 45.5525 43.403 44.7924C43.3951 44.7668 43.3827 44.7193 43.3652 44.6271C43.2654 44.1005 43.2882 43.5246 43.4932 43.0467C43.614 42.7648 43.7984 42.5139 44.0746 42.2829C47.183 39.4768 48.75 36.3143 48.75 32.0006C48.75 24.4851 42.8697 18.75 36 18.75C29.083 18.75 23.25 24.3874 23.25 32.0006C23.25 36.3016 24.7763 39.3718 27.7738 42.1946C28.1595 42.52 28.3532 42.7581 28.4849 43.0078C28.7398 43.4912 28.7725 44.0516 28.6608 44.5675C28.6528 44.6044 28.6461 44.6322 28.642 44.6496C28.6369 44.6707 28.6355 44.6767 28.6397 44.6654C28.4176 45.4542 27.4979 46.0209 24.9062 46.9061L23.5785 47.3544C23.0247 47.5423 22.5845 47.6965 22.1536 47.8555C19.725 48.7519 17.8484 49.7419 16.3802 51.0893ZM19.4445 54.398C23.8298 58.3467 29.6342 60.75 36 60.75C42.3643 60.75 48.1676 58.3478 52.5525 54.4007C51.5706 53.5305 50.2097 52.837 48.2794 52.1422C47.9436 52.0213 47.5921 51.9 47.1463 51.75L45.9899 51.3629C41.8037 49.9506 39.9193 48.8089 39.1084 46.1357C39.0572 45.9768 38.998 45.7503 38.944 45.465C38.6918 44.1344 38.7487 42.6924 39.3574 41.273C39.7534 40.3498 40.3619 39.5213 41.1232 38.8871C43.2675 36.9498 44.25 34.9669 44.25 32.0006C44.25 26.9959 40.4093 23.25 36 23.25C31.5346 23.25 27.75 26.9077 27.75 32.0006C27.75 34.9641 28.7098 36.8947 30.7515 38.8237C31.4854 39.4316 32.0566 40.1338 32.4651 40.9084C33.2823 42.4576 33.3754 44.0574 33.0589 45.5196C32.9941 45.8189 32.9229 46.057 32.9226 46.0308C32.2141 48.6621 30.3819 49.791 26.3608 51.1645L25.0244 51.6158C24.505 51.792 24.0995 51.9341 23.7118 52.0772C21.8037 52.7814 20.4349 53.5008 19.4445 54.398Z" fill="white"/>
</g>
</svg>
